:FULLY-SPECIFIED
:FORCE-ALL-JOINTS-BE-3DOF
:DEGREES
340
root 8.15252 16.0765 -20.2944 11.1977 22.6006 4.26522
lfemur -10.6268 19.1401 -10.0946
ltibia 42.9769 0 0
lfoot 4.64715 26.4516 0
ltoes -36.4805 0 0
rfemur -45.4236 -12.7462 5.45162
rtibia 54.5631 0 0
rfoot 2.44517 -21.2651 0
rtoes 12.1249 0 0
lowerback -1.07866 -1.85941 -1.56869
upperback 1.65089 -2.38882 0.281216
thorax 2.35964 -1.22955 1.08344
lowerneck -5.37401 -8.64679 -0.638535
upperneck -2.25863 -11.4997 6.15839
head 0.618262 -5.70103 1.74908
lclavicle -2.82308e-14 1.36188e-14 0
lhumerus -48.0114 -34.2256 110.159
lradius 57.9928 0 0
lwrist 18.9752 0 0
lhand 5.52018 12.6795 0
lfingers 7.12502 0 0
lthumb 30.865 40.0987 0
rclavicle -2.82308e-14 1.36188e-14 0
rhumerus -21.9901 18.1605 -72.2344
rradius 85.6401 0 0
rwrist 4.97278 0 0
rhand 16.6762 -8.90555 0
rfingers 7.12502 0 0
rthumb 41.2553 -752.019 0
341
root 8.08683 16.1046 -20.1188 10.976 20.9134 3.76558
lfemur -10.4571 18.946 -9.32517
ltibia 44.5564 0 0
lfoot 5.32306 25.6071 0
ltoes -35.97 0 0
rfemur -44.6811 -12.9431 6.08724
rtibia 54.062 0 0
rfoot 1.52307 -20.7977 0
rtoes 12.5037 0 0
lowerback -1.19149 -1.78823 -1.39962
upperback 1.59293 -2.28824 0.468829
thorax 2.35472 -1.17929 1.18044
lowerneck -5.49949 -8.40904 -0.679278
upperneck -1.99564 -11.1945 5.98507
head 0.702074 -5.54231 1.70167
lclavicle -2.68608e-14 1.40613e-14 0
lhumerus -47.8916 -33.2719 110.001
lradius 57.9688 0 0
lwrist 18.8079 0 0
lhand 4.94072 12.6099 0
lfingers 7.12502 0 0
lthumb 30.3135 40.1454 0
rclavicle -2.68608e-14 1.40613e-14 0
rhumerus -23.2983 17.2458 -73.6016
rradius 85.6838 0 0
rwrist 5.3174 0 0
rhand 14.1984 -10.4034 0
rfingers 7.12502 0 0
rthumb 38.8782 -753.744 0
342
root 8.02532 16.1304 -19.964 10.7448 19.386 3.30686
lfemur -10.2648 18.7555 -8.56047
ltibia 46.2253 0 0
lfoot 5.86977 24.4555 0
ltoes -34.8697 0 0
rfemur -44.0507 -13.2194 6.87644
rtibia 53.6037 0 0
rfoot 0.614797 -20.1293 0
rtoes 12.6992 0 0
lowerback -1.24341 -1.71767 -1.2626
upperback 1.55231 -2.19204 0.634357
thorax 2.33359 -1.13096 1.27479
lowerneck -5.62427 -8.18812 -0.718342
upperneck -1.74857 -10.9102 5.83898
head 0.78272 -5.39444 1.66263
lclavicle -2.54804e-14 1.44416e-14 0
lhumerus -47.7803 -32.4088 109.835
lradius 57.9549 0 0
lwrist 18.6322 0 0
lhand 4.43942 12.5339 0
lfingers 7.12502 0 0
lthumb 29.8366 40.1729 0
rclavicle -2.54804e-14 1.44416e-14 0
rhumerus -24.5292 16.344 -74.8845
rradius 85.6721 0 0
rwrist 5.50322 0 0
rhand 11.5138 -12.014 0
rfingers 7.12502 0 0
rthumb 36.3045 -755.622 0
343
root 7.96714 16.1541 -19.8268 10.5058 17.9942 2.88329
lfemur -10.0653 18.5697 -7.80579
ltibia 47.9664 0 0
lfoot 6.29503 23.032 0
ltoes -33.239 0 0
rfemur -43.5146 -13.56 7.80502
rtibia 53.1808 0 0
rfoot -0.284152 -19.2805 0
rtoes 12.7338 0 0
lowerback -1.23927 -1.64666 -1.15286
upperback 1.52752 -2.09835 0.779553
thorax 2.29748 -1.08365 1.36535
lowerneck -5.74835 -7.98082 -0.754261
upperneck -1.51631 -10.6426 5.71638
head 0.860276 -5.25537 1.63058
lclavicle -2.40873e-14 1.47588e-14 0
lhumerus -47.6747 -31.627 109.659
lradius 57.9488 0 0
lwrist 18.4498 0 0
lhand 4.00089 12.4492 0
lfingers 7.12502 0 0
lthumb 29.4194 40.1805 0
rclavicle -2.40873e-14 1.47588e-14 0
rhumerus -25.6897 15.4578 -76.0925
rradius 85.6023 0 0
rwrist 5.54958 0 0
rhand 8.65361 -13.7179 0
rfingers 7.12502 0 0
rthumb 33.5641 -757.627 0
